<svg xmlns="http://www.w3.org/2000/svg" width="75" height="75" viewBox="0 0 130 130">
  <g id="cart-icon" transform="translate(0 -0.103)">
    <g id="btn-cart" transform="translate(0 0.103)" fill="rgba(255,255,255,0.94)" stroke="#f90" stroke-width="5">
      <circle cx="65" cy="65" r="65" stroke="none"/>
      <circle cx="65" cy="65" r="62.5" fill="none"/>
    </g>
    <path id="cart-logo" d="M70.1,43.75H29.385l.909,4.375h37.28a3.3,3.3,0,0,1,3.25,4.008l-.766,3.319A7.639,7.639,0,0,1,66.552,70a7.75,7.75,0,0,1-7.66-7.444,7.572,7.572,0,0,1,2.334-5.68H32.108a7.574,7.574,0,0,1,2.337,5.469,7.782,7.782,0,0,1-15.545.413A7.625,7.625,0,0,1,22.8,55.7L13.039,8.75H3.333A3.308,3.308,0,0,1,0,5.469V3.281A3.308,3.308,0,0,1,3.333,0h14.24a3.321,3.321,0,0,1,3.266,2.624L22.112,8.75H76.665a3.3,3.3,0,0,1,3.25,4.008L73.35,41.2A3.322,3.322,0,0,1,70.1,43.75ZM55.976,26.25H50v-8.2a1.654,1.654,0,0,0-1.667-1.641H45a1.654,1.654,0,0,0-1.667,1.641v8.2H37.357a1.638,1.638,0,0,0-1.178,2.8l9.31,9.164a1.686,1.686,0,0,0,2.357,0l9.31-9.164A1.638,1.638,0,0,0,55.976,26.25Z" transform="translate(22.222 33.818)"/>
  </g>
</svg>
