<svg id="logo-mobile" xmlns="http://www.w3.org/2000/svg" width="150" height="95" viewBox="0 0 305.9 100">
  <path id="globe" d="M53.375,3.375a50,50,0,1,0,50,50A50,50,0,0,0,53.375,3.375Zm-5.18,92.548a42.862,42.862,0,0,1-27.437-70.35,47.489,47.489,0,0,1,.484,5.811c-.394,5.72-.959,9.3,2.389,14.125,1.3,1.88,1.625,4.574,2.26,6.75.621,2.128,3.1,3.245,4.812,4.556,3.452,2.646,6.754,5.722,10.414,8.051,2.416,1.537,3.925,2.3,3.217,5.25-.569,2.371-.728,3.831-1.954,5.943-.374.644,1.413,4.788,2.007,5.383,1.8,1.8,3.591,3.456,5.556,5.078C52.989,89.036,49.648,92.306,48.195,95.923ZM83.68,83.68a42.551,42.551,0,0,1-22.249,11.8,17.778,17.778,0,0,1,5.263-7.058,17.906,17.906,0,0,0,4.734-5.854,40.664,40.664,0,0,1,3.264-5.581c1.7-2.62-4.187-6.571-6.094-7.4-4.292-1.863-7.523-4.377-11.337-7.061-2.718-1.912-8.235,1-11.3-.341-4.2-1.835-7.664-5.023-11.317-7.774-3.769-2.839-3.587-6.148-3.587-10.336,2.952.109,7.152-.817,9.112,1.557.619.749,2.745,4.1,4.169,2.907,1.163-.972-.862-4.868-1.253-5.783-1.2-2.816,2.741-3.914,4.76-5.824,2.635-2.491,8.286-6.4,7.839-8.184s-5.655-6.845-8.714-6.056c-.458.118-4.494,4.35-5.274,5.014q.031-2.072.062-4.144c.013-.872-1.627-1.767-1.551-2.33.192-1.422,4.15-4,5.134-5.134-.69-.431-3.043-2.452-3.755-2.156-1.725.719-3.672,1.214-5.4,1.932a10.977,10.977,0,0,0-.159-1.715A42.448,42.448,0,0,1,46.92,11l3.386,1.361L52.7,15.2l2.386,2.46,2.085.672L60.479,15.2l-.854-2.23v-2a42.389,42.389,0,0,1,18.154,7.163c-.969.087-2.034.229-3.236.382a10.772,10.772,0,0,0-1.674-.631c1.57,3.375,3.207,6.7,4.871,10.035,1.777,3.558,5.719,7.374,6.412,11.13.816,4.427.25,8.448.7,13.656C85.278,57.721,90.5,63.42,90.5,63.42a11.322,11.322,0,0,0,4.419.536A42.594,42.594,0,0,1,83.68,83.68Z" transform="translate(-3.375 -3.375)"/>
  <path id="cross" d="M67.523,13.523l-6-6-24,24-24-24-6,6,24,24-24,24,6,6,24-24,24,24,6-6-24-24Z" transform="translate(118.552 12.477)"/>
  <path id="dice-20" d="M20.849,42,.234,72.45a1.561,1.561,0,0,0,1.158,2.371l40.675,4.31L20.849,42Zm-19.4,19.6,14.7-23.9L1.184,28.73A.781.781,0,0,0,0,29.4V61.2A.781.781,0,0,0,1.447,61.607ZM3.564,82.733,41.533,99.854a1.562,1.562,0,0,0,2.217-1.418V85.61L3.994,81.255a.781.781,0,0,0-.43,1.478ZM19.427,32.386,35.039,4.469a1.562,1.562,0,0,0-2.105-2.176L3.478,21.552A.783.783,0,0,0,3.5,22.877Zm27.447,1.988H68.2L49.536,1.488a3.125,3.125,0,0,0-5.324,0L25.545,34.375ZM92.565,28.73,77.6,37.712l14.7,23.9a.782.782,0,0,0,1.447-.41V29.4A.781.781,0,0,0,92.565,28.73ZM74.321,32.386l15.924-9.512a.782.782,0,0,0,.025-1.324L60.816,2.293A1.562,1.562,0,0,0,58.71,4.469ZM89.755,81.255,50,85.608V98.434a1.561,1.561,0,0,0,2.217,1.418L90.184,82.731A.78.78,0,0,0,89.755,81.255ZM72.9,42,51.683,79.132l40.675-4.31a1.562,1.562,0,0,0,1.158-2.371ZM46.874,40.624H27.259L46.874,74.95,66.489,40.624Z" transform="translate(212.15 0)"/>
</svg>

